<svg width="500" height="379" viewBox="0 0 500 379" fill="none" xmlns="http://www.w3.org/2000/svg">
<path d="M172.899 195.722L117.982 191.298C111.831 190.802 107.366 186.811 108.059 182.425L109.439 173.729C110.136 169.347 115.74 166.163 121.891 166.659L176.808 171.083C182.962 171.579 187.424 175.571 186.731 179.957L185.35 188.652C184.657 193.035 179.053 196.219 172.899 195.722Z" fill="white"/>
<path d="M77.8486 185.739C86.5697 185.739 93.6395 180.701 93.6395 174.487C93.6395 168.272 86.5697 163.234 77.8486 163.234C69.1275 163.234 62.0576 168.272 62.0576 174.487C62.0576 180.701 69.1275 185.739 77.8486 185.739Z" fill="white"/>
<path d="M38.5696 181.64L5.67414 179.706C1.98799 179.49 -0.521411 175.718 0.0924174 171.326L1.31372 162.611C1.93073 158.219 5.44827 154.8 9.13442 155.017L42.0299 156.95C45.7161 157.167 48.2255 160.939 47.6117 165.331L46.3904 174.045C45.7733 178.441 42.2557 181.856 38.5696 181.64Z" fill="white"/>
<path d="M117.127 219.478L56.7938 216.1C51.5206 215.804 47.4464 211.25 47.7422 205.977C48.038 200.704 52.5924 196.63 57.8656 196.925L118.199 200.303C123.472 200.599 127.546 205.153 127.25 210.426C126.958 215.7 122.4 219.774 117.127 219.478Z" fill="white"/>
<path d="M159.029 259.188L113.005 256.612C107.732 256.316 103.657 251.762 103.953 246.489C104.249 241.215 108.803 237.141 114.076 237.437L160.101 240.013C165.374 240.309 169.448 244.864 169.153 250.137C168.857 255.41 164.302 259.484 159.029 259.188Z" fill="white"/>
<path d="M209.718 143.662L171.585 270.022C167.514 210.833 152.025 130.495 102.283 52.3193C89.8469 32.7595 76.648 15.4897 63.3855 0.287109C80.3373 3.08591 101.106 8.93798 122.224 21.1827C179.377 54.3867 201.513 112.684 209.718 143.662Z" fill="white"/>
<path d="M223.426 161.759L181.285 303.926C177.436 302.049 174.542 300.236 172.793 299.06C188.377 247.345 203.993 195.631 219.609 143.917C221.136 149.896 222.217 155.112 223.012 159.501L223.426 161.759Z" fill="white"/>
<path d="M209.718 143.662L171.585 270.022C167.514 210.833 152.025 130.495 102.283 52.3193C89.8469 32.7595 76.648 15.4897 63.3855 0.287109C80.3373 3.08591 101.106 8.93798 122.224 21.1827C179.377 54.3867 201.513 112.684 209.718 143.662Z" fill="white"/>
<path d="M276.986 226.862C275.332 232.301 273.679 237.708 271.993 243.146V243.178C266.395 261.561 260.798 279.944 255.2 298.327C249.793 302.08 235.767 310.795 215.826 311.431C201.069 311.908 189.142 307.805 181.286 303.925C177.438 302.048 174.544 300.235 172.794 299.059C188.379 247.344 203.995 195.63 219.611 143.916C219.611 143.884 219.611 143.852 219.611 143.852C223.268 131.767 226.894 119.713 230.552 107.627V107.595C232.205 102.125 233.859 96.6862 235.513 91.2158C249.348 136.41 263.151 181.636 276.986 226.862Z" fill="white"/>
<path d="M365.783 230.678L358.627 253.418V253.45L351.439 276.349L323.61 364.989C319.857 362.19 317.44 359.836 316.454 358.85C316.295 358.024 316.009 356.051 315.596 353.125V352.998C314.705 346.447 313.465 335.156 312.892 320.621C312.701 316.582 312.606 312.257 312.574 307.709C312.51 304.528 312.542 301.284 312.574 297.913C312.701 290.407 313.019 282.456 313.655 274.091V274.027C315.055 255.167 317.981 234.463 323.388 213.376C324.819 207.842 326.409 202.308 328.158 196.774C329.113 193.848 330.098 190.922 331.148 187.996C332.484 184.243 333.915 180.49 335.442 176.769C336.555 173.97 337.763 171.203 339.004 168.405C340.976 164.047 343.106 159.69 345.365 155.396L365.783 230.678Z" fill="white"/>
<path d="M317.918 90.4838C313.942 87.3988 294.637 73.055 268.335 76.6171C257.998 78.0165 249.697 81.7376 243.718 85.3634C240.124 87.5579 237.357 89.657 235.512 91.2154C249.347 136.41 263.15 181.636 276.985 226.862C278.639 232.301 280.325 237.739 281.979 243.178V243.209C289.008 266.204 296.068 289.167 303.097 312.162C302.938 304.211 303.002 295.56 303.383 286.336L295.75 259.907C295.432 258.73 296.1 257.521 297.245 257.172L305.8 254.723C305.864 254.691 305.896 254.691 305.959 254.691C308.249 236.213 312.066 216.589 318.172 196.838V196.807L323.77 180.395L324.247 179.155C323.293 179.155 322.466 178.551 322.18 177.628L314.483 153.107C314.101 151.962 314.769 150.722 315.914 150.372L324.406 147.7C325.551 147.35 326.76 147.987 327.141 149.131L331.308 162.362C332.548 159.659 333.852 156.955 335.188 154.284C329.431 133.007 323.674 111.761 317.918 90.4838ZM296.259 90.3249L304.751 87.6851C305.896 87.3035 307.136 87.9396 307.486 89.0845L310.507 98.6576C310.857 99.8026 310.221 101.043 309.076 101.393L300.584 104.064C299.439 104.446 298.199 103.778 297.849 102.633L294.828 93.0918C294.478 91.9469 295.114 90.7065 296.259 90.3249ZM248.266 113.351L242.477 96.3995C242.096 95.2546 242.7 94.0142 243.845 93.6326L252.273 90.7383C253.386 90.3567 254.659 90.9609 255.04 92.1059L260.797 109.09C261.21 110.203 260.574 111.475 259.461 111.857L251.033 114.719C249.888 115.101 248.648 114.496 248.266 113.351ZM260.479 149.799L252.814 125.405C252.464 124.26 253.1 123.02 254.245 122.67L262.737 119.998C263.882 119.617 265.122 120.285 265.472 121.43L273.137 145.824C273.519 146.969 272.883 148.209 271.706 148.559L263.246 151.231C262.101 151.612 260.86 150.944 260.479 149.799ZM276.063 195.789L264.963 160.486C264.582 159.341 265.249 158.1 266.394 157.751L274.886 155.079C276.031 154.729 277.272 155.365 277.622 156.51L288.721 191.813C289.071 192.958 288.435 194.199 287.29 194.548L278.798 197.22C277.653 197.602 276.413 196.934 276.063 195.789ZM303.638 245.34L295.146 248.012C294.001 248.362 292.76 247.726 292.411 246.581L280.706 209.369C280.325 208.224 280.993 206.984 282.138 206.602L290.598 203.963C291.743 203.581 292.983 204.217 293.365 205.394L305.069 242.605C305.419 243.75 304.783 244.991 303.638 245.34ZM321.289 137.809L312.797 140.449C311.652 140.831 310.412 140.194 310.062 139.018L302.365 114.624C302.016 113.479 302.652 112.238 303.797 111.888L312.288 109.217C313.433 108.835 314.674 109.503 315.024 110.648L322.72 135.042C323.07 136.187 322.434 137.427 321.289 137.809Z" fill="white"/>
<path d="M355.828 230.488C355.51 231.474 355.192 232.491 354.906 233.477C354.874 233.509 354.874 233.509 354.874 233.509C353.507 237.962 352.107 242.383 350.708 246.835C349.34 251.129 348.004 255.454 346.637 259.748C340.149 280.516 333.629 301.253 327.109 322.021C325.264 327.905 323.419 333.757 321.575 339.641C319.857 345.08 318.172 350.486 316.454 355.925C316.168 355.003 315.882 354.049 315.596 353.126V352.999C314.705 346.447 313.465 335.157 312.892 320.622C312.701 316.583 312.606 312.257 312.574 307.709C312.51 304.529 312.542 301.285 312.574 297.913C312.701 290.408 313.019 282.457 313.655 274.092V274.028C315.055 255.168 317.981 234.463 323.388 213.377C324.819 207.843 326.409 202.309 328.158 196.775C329.113 193.849 330.098 190.923 331.148 187.997C332.484 184.244 333.915 180.491 335.442 176.77C336.555 173.971 337.763 171.204 339.004 168.405C339.831 171.427 340.657 174.448 341.484 177.47C346.255 195.153 351.058 212.804 355.828 230.488Z" fill="white"/>
<path d="M317.823 296.419L312.575 297.913C312.702 290.408 313.02 282.456 313.656 274.092L319.317 293.715C319.667 294.86 318.999 296.069 317.823 296.419Z" fill="white"/>
<path d="M351.64 237.039L343.094 239.504C341.937 239.838 340.718 239.164 340.385 238.01L332.128 209.395C331.794 208.24 332.468 207.019 333.623 206.685L342.169 204.22C343.326 203.886 344.544 204.561 344.878 205.715L353.135 234.33C353.469 235.487 352.795 236.705 351.64 237.039Z" fill="white"/>
<path d="M329.272 337.415L321.575 339.641L320.717 339.896C319.572 340.214 318.331 339.546 318.013 338.401L312.893 320.622C312.702 316.583 312.607 312.258 312.575 307.71L320.049 305.547C321.225 305.197 322.434 305.865 322.784 307.042L327.109 322.022L330.767 334.712C331.085 335.889 330.417 337.097 329.272 337.415Z" fill="white"/>
<path d="M363.649 278.662L355.103 281.126C353.946 281.46 352.727 280.786 352.394 279.632L344.137 251.017C343.803 249.863 344.477 248.641 345.632 248.307L354.178 245.842C355.332 245.508 356.553 246.183 356.887 247.337L365.144 275.952C365.478 277.11 364.807 278.328 363.649 278.662Z" fill="white"/>
<path d="M358.659 229.216C357.769 230.965 356.465 232.428 354.906 233.477C354.874 233.509 354.874 233.509 354.874 233.509C354.334 233.891 353.761 234.209 353.157 234.463C352.712 234.686 352.266 234.845 351.789 235.004L343.297 237.644C342.375 237.962 341.421 238.121 340.435 238.153C340.244 238.184 340.022 238.184 339.799 238.184C334.647 238.184 330.162 234.909 328.604 229.979L323.388 213.377C324.819 207.843 326.409 202.309 328.159 196.775C329.113 193.849 330.099 190.923 331.148 187.997C332.484 184.244 333.915 180.491 335.442 176.77C335.982 176.674 336.555 176.643 337.127 176.643C338.654 176.643 340.117 176.929 341.485 177.469C344.697 178.742 347.241 181.413 348.323 184.88L359.454 220.278C360.408 223.268 360.122 226.449 358.659 229.216Z" fill="white"/>
<path d="M350.326 224.571C350.072 225.175 349.595 225.684 348.927 225.875L340.435 228.546C339.29 228.928 338.05 228.26 337.7 227.115L332.198 209.591L332.134 209.4L328.159 196.774C329.113 193.848 330.099 190.922 331.148 187.996L336.491 186.31C337.636 185.928 338.877 186.596 339.227 187.741L344.856 205.647L345.015 206.092L350.358 223.14C350.517 223.617 350.485 224.126 350.326 224.571Z" fill="white"/>
<path d="M399.848 197.189C379.429 274.22 395.967 338.02 404.205 363.813C399.561 367.598 385.663 377.839 365.308 378.539C346.289 379.175 331.817 371.128 323.612 364.99C319.859 362.191 317.442 359.838 316.456 358.852C316.297 358.025 316.011 356.053 315.597 353.127V353C314.707 346.448 313.466 335.157 312.894 320.623C312.703 316.583 312.608 312.258 312.576 307.71C312.512 304.529 312.544 301.285 312.576 297.914C312.703 290.408 313.021 282.457 313.657 274.092V274.029C315.056 255.169 317.983 234.464 323.389 213.377C324.821 207.843 326.411 202.31 328.16 196.776C329.114 193.849 330.1 190.923 331.15 187.997C332.485 184.244 333.917 180.492 335.443 176.77C336.556 173.972 337.765 171.205 339.005 168.406C340.977 164.049 343.108 159.691 345.366 155.398C345.366 155.366 345.366 155.366 345.366 155.366C358.692 129.986 377.107 106.005 402.456 86.0638C435.66 59.9523 471.44 48.0891 500 42.5869C479.613 59.1571 423.033 109.599 399.848 197.189Z" fill="white"/>
</svg>
